{"title":"Furry.Vengeance.2010.BRRip.H264.FEEL-FREE","uid":5740452,"size":1866722403,"categoryP":"video","categoryS":"movies","magnet":"?xt=urn:btih:014db198f29074ef0327410071706782a154ce50&amp;dn=Furry.Vengeance.2010.BRRip.H264.FEEL-FREE&amp;tr=udp%3A%2F%2Ftracker.openbittorrent.com%3A80&amp;tr=udp%3A%2F%2Fopen.demonii.com%3A1337&amp;tr=udp%3A%2F%2Ftracker.coppersurfer.tk%3A6969&amp;tr=udp%3A%2F%2Fexodus.desync.com%3A6969","seeders":0,"leechers":0,"uploader":"hiest","files":9,"time":1281015294,"description":"Genre:Comedy | Family \nLanguage:English\nIMDb:http://www.imdb.com/title/tt0492389/\nSource:BluRay.x264-Felony\n............................................\nGeneral\nComplete name : Furry.Vengeance.2010.BRRip.H264.FEEL-FREE.mp4\nFormat : MPEG-4\nFormat profile : Base Media\nCodec ID : isom\nFile size : 1.74 GiB\nDuration : 1h 31mn\nOverall bit rate : 2 724 Kbps\n.............................................\nVideo\nID : 2\nFormat : AVC\nFormat/Info : Advanced Video Codec\nFormat profile : &lt;a class=&quot;__cf_email__&quot; href=&quot;/cdn-cgi/l/email-protection&quot; data-cfemail=&quot;e0a28193858c898e85a0acd1ced3&quot;&gt;[email&amp;#160;protected]&lt;/a&gt;&lt;script data-cfhash='f9e31' type=&quot;text/javascript&quot;&gt;\n/* &lt;![CDATA[ */!function(){try{var t=&quot;currentScript&quot;in document?document.currentScript:function(){for(var t=document.getElementsByTagName(&quot;script&quot;),e=t.length;e--;)if(t[e].getAttribute(&quot;data-cfhash&quot;))return t[e]}();if(t&amp;&amp;t.previousSibling){var e,r,n,i,c=t.previousSibling,a=c.getAttribute(&quot;data-cfemail&quot;);if(a){for(e=&quot;&quot;,r=parseInt(a.substr(0,2),16),n=2;a.length-n;n+=2)i=parseInt(a.substr(n,2),16)^r,e+=String.fromCharCode(i);e=document.createTextNode(e),c.parentNode.replaceChild(e,c)}t.parentNode.removeChild(t);}}catch(u){}}()/* ]]&gt; */&lt;/script&gt;\nFormat settings, CABAC : No\nFormat settings, ReFrames : 1 frame\nCodec ID : avc1\nCodec ID/Info : Advanced Video Coding\nDuration : 1h 31mn\nBit rate mode : Variable\nBit rate : 2 527 Kbps\nWidth : 1 280 pixels\nHeight : 720 pixels\nDisplay aspect ratio : 16:9\nFrame rate mode : Constant\nFrame rate : 23.976 fps\nResolution : 24 bits\nColorimetry : 4:2:0\nScan type : Progressive\nBits/(Pixel*Frame) : 0.114\nStream size : 1.61 GiB (93%)\nLanguage : English\n..............................................\nAudio\nID : 1\nFormat : AAC\nFormat/Info : Advanced Audio Codec\nFormat version : Version 4\nFormat profile : LC\nFormat settings, SBR : No\nCodec ID : 40\nDuration : 1h 31mn\nBit rate mode : Constant\nBit rate : 192 Kbps\nChannel(s) : 6 channels\nChannel positions : Front: L C R, Rear: L R, LFE\nSampling rate : 48.0 KHz\nResolution : 16 bits\nStream size : 126 MiB (7%)\nLanguage : English\n..............................................\nPlot:\nn the Oregon wilderness, a real estate developer's new housing subdivision faces a unique group of protesters, local woodland creatures who don't want their homes disturbed.\n...................................................\nScreenshots: &lt;a href=&quot;\nhttp://postimg.com/image/20000/19136.jpg&quot; rel=&quot;nofollow&quot; target=&quot;_NEW&quot;&gt;\nhttp://postimg.com/image/20000/19136.jpg&lt;/a&gt; &lt;a href=&quot;\nhttp://postimg.com/image/20000/19137.jpg&quot; rel=&quot;nofollow&quot; target=&quot;_NEW&quot;&gt;\nhttp://postimg.com/image/20000/19137.jpg&lt;/a&gt; &lt;a href=&quot;\nhttp://postimg.com/image/20000/19138.jpg&quot; rel=&quot;nofollow&quot; target=&quot;_NEW&quot;&gt;\nhttp://postimg.com/image/20000/19138.jpg&lt;/a&gt;\n.........................................................","torrent":{"xt":"urn:btih:014db198f29074ef0327410071706782a154ce50","amp;dn":"Furry.Vengeance.2010.BRRip.H264.FEEL-FREE","amp;tr":["udp%3A%2F%2Ftracker.openbittorrent.com%3A80","udp%3A%2F%2Fopen.demonii.com%3A1337","udp%3A%2F%2Ftracker.coppersurfer.tk%3A6969","udp%3A%2F%2Fexodus.desync.com%3A6969"],"infoHash":"014db198f29074ef0327410071706782a154ce50","infoHashBuffer":{"type":"Buffer","data":[1,77,177,152,242,144,116,239,3,39,65,0,113,112,103,130,161,84,206,80]},"announce":[],"urlList":[]}}